#!OML:ASF F:\VICON\USERDATA\Patient Classification 1\PLAYGROUND\JustinFriday\JustinFriday.ASF
:FULLY-SPECIFIED
:DEGREES
2888
root 13.3468 23.9885 48.8319 355.964 -180.489 9.60092
lowerback 31.6935 -1.16308 -9.34927
upperback 12.2532 -0.503732 4.19393
thorax -2.68425 0.728099 9.52601
lowerneck -19.835 -3.61042 -17.7282
upperneck 37.3403 3.52178 3.40395
head 16.7818 0.224024 5.53587
rclavicle -8.74653e-015 4.77083e-015
rhumerus 69.8313 -20.9923 -44.126
rradius 92.123
rwrist 7.71745
rhand -35.7768 -22.7694
rfingers 7.12502
rthumb -8.89445 -52.5619
lclavicle -8.74653e-015 4.77083e-015
lhumerus 30.4152 -13.309 70.528
lradius 54.3473
lwrist -32.1289
lhand -15.0933 -21.2675
lfingers 7.12502
lthumb 11.0747 8.42026
rfemur -47.5662 -9.62349 30.6588
rtibia 101.286
rfoot -3.01474 -12.5346
rtoes 63.458
lfemur 6.21718 3.5661 -10.7723
ltibia -5.1684e-014
lfoot 7.37165 -4.43552
ltoes 14.7882
2889
root 13.3441 23.9843 48.8485 356.112 -180.492 9.7103
lowerback 31.6232 -1.16585 -9.33713
upperback 12.2284 -0.514716 4.21727
thorax -2.68379 0.716178 9.5492
lowerneck -19.7185 -3.64853 -18.2688
upperneck 37.399 3.50352 3.81835
head 16.7714 0.200158 5.81279
rclavicle -3.97569e-014 3.18055e-014
rhumerus 67.2177 -19.4776 -42.9824
rradius 94.6984
rwrist 7.78618
rhand -35.4467 -22.4888
rfingers 7.12502
rthumb -8.57591 -52.2947
lclavicle -3.97569e-014 3.18055e-014
lhumerus 30.683 -13.2242 70.5662
lradius 53.9589
lwrist -32.1733
lhand -15.8802 -22.0417
lfingers 7.12502
lthumb 10.3157 7.6853
rfemur -47.1873 -9.68488 30.56
rtibia 101.894
rfoot -1.8334 -12.0723
rtoes 64.0096
lfemur 5.94806 3.65332 -10.6436
ltibia 3.97569e-015
lfoot 7.49897 -4.70273
ltoes 19.3706
2890
root 13.3482 23.9767 48.8639 356.107 -180.667 9.80767
lowerback 31.6246 -1.07197 -9.50419
upperback 12.2846 -0.429795 4.23997
thorax -2.63345 0.750771 9.63928
lowerneck -19.3251 -3.52543 -18.7767
upperneck 36.921 3.60364 4.02737
head 16.3985 0.235321 5.95956
rclavicle 2.06736e-014 2.38542e-014
rhumerus 64.6053 -17.8355 -41.9098
rradius 97.1198
rwrist 7.64575
rhand -35.256 -21.8966
rfingers 7.12502
rthumb -8.39187 -51.7099
lclavicle 2.06736e-014 2.38542e-014
lhumerus 30.8796 -12.8881 70.7843
lradius 53.6177
lwrist -32.5727
lhand -16.5775 -23.1355
lfingers 7.12502
lthumb 9.64303 6.62382
rfemur -46.4615 -9.51885 30.4745
rtibia 102.335
rfoot -0.117001 -11.6458
rtoes 64.5074
lfemur 5.90378 3.88293 -10.4509
ltibia 4.77083e-015
lfoot 7.65244 -4.875
ltoes 13.7137
2891
root 13.3488 23.9688 48.8831 356.307 -180.46 9.92446
lowerback 31.4922 -1.18168 -9.43794
upperback 12.2787 -0.552308 4.26097
thorax -2.5671 0.682791 9.66586
lowerneck -19.1627 -3.41045 -19.0784
upperneck 36.6873 3.80507 4.04986
head 16.2079 0.300179 6.03066
rclavicle 2.78299e-014 -2.70347e-014
rhumerus 61.9821 -16.0468 -40.6986
rradius 99.2625
rwrist 7.36965
rhand -35.5935 -22.1061
rfingers 7.12502
rthumb -8.71753 -51.9061
lclavicle 2.78299e-014 -2.70347e-014
lhumerus 31.2171 -12.3943 71.2972
lradius 52.9629
lwrist -33.418
lhand -17.1297 -24.4706
lfingers 7.12502
lthumb 9.11023 5.31267
rfemur -45.9496 -9.74313 30.3647
rtibia 102.66
rfoot 1.65434 -11.3323
rtoes 64.9868
lfemur 5.54413 3.77137 -10.2968
ltibia 4.6118e-014
lfoot 7.97899 -5.02413
ltoes 18.1937
2892
root 13.3443 23.9612 48.9038 356.685 -179.931 10.0101
lowerback 31.2805 2.65682 -6.70636
upperback 11.7987 -2.14373 5.02473
thorax -3.10134 -3.00561 9.65323
lowerneck -19.1328 -3.34047 -19.2831
upperneck 36.697 4.02309 4.01156
head 16.1779 0.362747 6.08471
rclavicle 1.59028e-014 3.97569e-015
rhumerus 59.4378 -14.0774 -39.4865
rradius 101.145
rwrist 7.06272
rhand -36.0153 -22.1934
rfingers 7.12502
rthumb -9.12459 -51.976
lclavicle 1.59028e-014 3.97569e-015
lhumerus 31.7767 -12.0206 71.7537
lradius 52.104
lwrist -34.2743
lhand -17.8015 -25.507
lfingers 7.12502
lthumb 8.46187 4.30343
rfemur -45.6854 -10.2835 30.1772
rtibia 102.895
rfoot 3.52053 -11.3267
rtoes 65.5325
lfemur 4.91863 3.37712 -10.2433
ltibia 2.78299e-015
lfoot 7.86376 -5.62054
ltoes 18.3764
2893
root 13.3463 23.9568 48.9231 356.836 -179.826 10.1566
lowerback 31.222 2.58997 -6.66673
upperback 11.8024 -2.20778 5.05796
thorax -3.06281 -3.03638 9.68487
lowerneck -19.0275 -3.29591 -19.6214
upperneck 36.6252 4.17992 4.05272
head 16.0935 0.397869 6.17625
rclavicle 4.92986e-014 -2.46493e-014
rhumerus 57.0714 -11.9593 -38.6602
rradius 102.858
rwrist 6.94217
rhand -35.6654 -21.9091
rfingers 7.12502
rthumb -8.78689 -51.7062
lclavicle 4.92986e-014 -2.46493e-014
lhumerus 31.6943 -11.9317 71.7857
lradius 52.1831
lwrist -34.6632
lhand -18.685 -25.8651
lfingers 7.12502
lthumb 7.60923 3.97803
rfemur -44.978 -10.3175 30.1291
rtibia 102.892
rfoot 6.16445 -11.5904
rtoes 66.0569
lfemur 4.61649 3.35868 -10.0514
ltibia 5.78463e-014
lfoot 7.68693 -6.26005
ltoes 17.1212
2894
root 13.3412 23.9412 48.9394 357.361 -179.274 10.5585
lowerback 30.6746 2.14205 -6.11014
upperback 11.7473 -2.50497 5.11734
thorax -2.8619 -3.13861 9.51583
lowerneck -18.8212 -3.25974 -20.1531
upperneck 36.4719 4.29454 4.23529
head 15.9422 0.416923 6.34477
rclavicle -3.49861e-014 2.06736e-014
rhumerus 54.7862 -9.72808 -37.9364
rradius 104.256
rwrist 7.01923
rhand -35.2126 -21.9972
rfingers 7.12502
rthumb -8.34999 -51.8121
lclavicle -3.49861e-014 2.06736e-014
lhumerus 32.0606 -11.8491 71.9291
lradius 51.9328
lwrist -34.9587
lhand -19.4971 -26.1854
lfingers 7.12502
lthumb 6.82525 3.68459
rfemur -44.6887 -10.6927 30.4336
rtibia 102.793
rfoot 9.60036 -12.22
rtoes 66.6782
lfemur 3.78784 2.95544 -9.65591
ltibia 4.83047e-014
lfoot 8.46746 -6.03603
ltoes 30.4166
2895
root 13.3472 23.9232 48.953 357.619 -179.446 10.7857
lowerback 30.3086 2.15478 -6.06138
upperback 11.7749 -2.43262 5.16688
thorax -2.70144 -3.10269 9.5072
lowerneck -18.6087 -3.23169 -20.7373
upperneck 36.389 4.36656 4.56744
head 15.8223 0.428498 6.58582
rclavicle 8.50798e-014 -3.81667e-014
rhumerus 52.4842 -7.37791 -37.0793
rradius 105.29
rwrist 6.99554
rhand -35.2408 -21.9818
rfingers 7.12502
rthumb -8.37715 -51.7956
lclavicle 8.50798e-014 -3.81667e-014
lhumerus 31.7328 -11.7706 71.7976
lradius 52.4792
lwrist -35.0376
lhand -19.9696 -26.6311
lfingers 7.12502
lthumb 6.36915 3.25309
rfemur -44.0336 -10.3116 30.5976
rtibia 102.536
rfoot 11.7413 -13.1784
rtoes 67.1323
lfemur 3.46032 3.22975 -9.35648
ltibia -9.93923e-015
lfoot 9.15554 -5.62094
ltoes 20.1022
2896
root 13.3567 23.8966 48.9671 357.786 -179.865 10.8177
lowerback 30.0944 2.36092 -6.35172
upperback 11.7992 -2.2296 5.19176
thorax -2.62181 -3.01492 9.62691
lowerneck -18.4597 -3.18983 -20.9759
upperneck 36.3203 4.49256 4.55311
head 15.7365 0.460027 6.62829
rclavicle -2.14687e-014 7.95139e-015
rhumerus 50.302 -4.83318 -36.4434
rradius 106.011
rwrist 6.83226
rhand -35.2868 -21.4612
rfingers 7.12502
rthumb -8.4216 -51.2733
lclavicle -2.14687e-014 7.95139e-015
lhumerus 31.7058 -11.7454 71.6223
lradius 52.645
lwrist -35.1862
lhand -20.3483 -26.8943
lfingers 7.12502
lthumb 6.00353 3.00067
rfemur -43.2553 -9.73838 30.5266
rtibia 102.142
rfoot 12.6527 -11.6083
rtoes 66.9075
lfemur 0.449648 3.69425 -9.29301
ltibia 5.61131
lfoot 6.73046 -6.34611
ltoes 14.6704
2897
root 13.3639 23.872 48.9805 357.918 -180.127 10.862
lowerback 29.9797 2.49637 -6.55993
upperback 11.8 -2.0977 5.22376
thorax -2.59593 -2.95614 9.73478
lowerneck -18.3422 -3.03307 -21.1868
upperneck 36.1433 4.78223 4.48804
head 15.5771 0.566351 6.66063
rclavicle 2.46493e-014 7.63333e-014
rhumerus 48.2095 -2.16569 -35.9943
rradius 106.531
rwrist 6.55399
rhand -35.549 -20.9458
rfingers 7.12502
rthumb -8.67462 -50.7476
lclavicle 2.46493e-014 7.63333e-014
lhumerus 32.0634 -11.6735 71.7078
lradius 52.28
lwrist -35.1825
lhand -20.8371 -27.2274
lfingers 7.12502
lthumb 5.53164 2.68042
rfemur -42.2905 -9.33503 30.4489
rtibia 101.493
rfoot 16.8261 -13.3851
rtoes 67.6109
lfemur -2.03073 4.00781 -9.17827
ltibia 10.1526
lfoot 5.04292 -6.76142
ltoes 21.0295
2898
root 13.3662 23.8449 48.9946 358.109 -180.081 10.9292
lowerback 29.7871 2.42791 -6.53856
upperback 11.803 -2.15004 5.21902
thorax -2.50518 -2.97678 9.72642
lowerneck -18.1854 -2.96863 -21.7352
upperneck 36.0124 4.86782 4.85096
head 15.4376 0.594658 6.90452
rclavicle 1.35174e-014 -2.14687e-014
rhumerus 46.285 0.519989 -35.6301
rradius 106.758
rwrist 6.25135
rhand -35.9456 -20.3657
rfingers 7.12502
rthumb -9.05729 -50.1513
lclavicle 1.35174e-014 -2.14687e-014
lhumerus 32.5687 -11.505 71.9486
lradius 51.8871
lwrist -35.3066
lhand -21.0615 -27.6254
lfingers 7.12502
lthumb 5.31493 2.28793
rfemur -41.3721 -9.21455 30.3871
rtibia 100.649
rfoot 18.7208 -12.8197
rtoes 67.5479
lfemur -3.99819 4.43776 -9.08577
ltibia 13.3613
lfoot 4.21202 -7.37418
ltoes 20.0435
2899
root 13.3617 23.7956 49.0142 358.647 -179.423 11.1052
lowerback 29.1045 1.93595 -6.07839
upperback 11.8186 -2.49374 4.89749
thorax -2.24027 -3.08978 9.83281
lowerneck -17.7614 -2.91149 -22.3853
upperneck 35.7744 4.93147 5.13874
head 15.1963 0.607957 7.10905
rclavicle 2.54444e-014 -4.45278e-014
rhumerus 44.5193 3.17162 -35.4305
rradius 106.568
rwrist 6.01613
rhand -35.6442 -19.3024
rfingers 7.12502
rthumb -8.76642 -49.1004
lclavicle 2.54444e-014 -4.45278e-014
lhumerus 32.6324 -11.2778 71.8803
lradius 52.1204
lwrist -35.5294
lhand -20.919 -27.9677
lfingers 7.12502
lthumb 5.45254 1.94217
rfemur -41.0495 -9.64773 30.46
rtibia 99.8051
rfoot 21.6302 -12.7455
rtoes 67.646
lfemur -6.2622 3.99289 -8.98735
ltibia 16.0402
lfoot 2.89936 -8.1617
ltoes 17.4425
2900
root 13.3541 23.7713 49.0295 359.281 -178.445 11.2042
lowerback 28.3439 1.22494 -5.41152
upperback 11.757 -3.10077 4.82322
thorax -1.87421 -3.33258 9.46167
lowerneck -17.3705 -2.85863 -23.0976
upperneck 35.5327 5.00835 5.43099
head 14.9607 0.618809 7.32572
rclavicle 1.03368e-014 0
rhumerus 42.894 5.75027 -35.4422
rradius 106.108
rwrist 5.95125
rhand -34.9798 -18.2679
rfingers 7.12502
rthumb -8.12527 -48.0917
lclavicle 1.03368e-014 0
lhumerus 33.1545 -11.3246 71.5639
lradius 52.0602
lwrist -35.2423
lhand -20.698 -27.1176
lfingers 7.12502
lthumb 5.66598 2.78664
rfemur -40.6846 -10.442 30.4536
rtibia 98.6375
rfoot 25.4064 -14.7202
rtoes 68.0464
lfemur -8.61992 3.80975 -8.97821
ltibia 18.5555
lfoot 0.866984 -10.0049
ltoes 11.5953
2901
root 13.3855 23.735 49.038 359.169 -179.681 11.1999
lowerback 28.0309 1.76876 -5.95479
upperback 12.0333 -2.62692 4.73973
thorax -1.49282 -3.18431 9.51696
lowerneck -17.169 -2.83655 -23.9994
upperneck 35.3609 5.033 6.00852
head 14.7906 0.607493 7.69904
rclavicle -3.4191e-014 -2.8625e-014
rhumerus 41.5701 8.26739 -35.6317
rradius 105.401
rwrist 6.04187
rhand -34.4656 -17.6449
rfingers 7.12502
rthumb -7.62897 -47.4873
lclavicle -3.4191e-014 -2.8625e-014
lhumerus 33.7053 -11.5653 70.9753
lradius 52.3607
lwrist -34.4959
lhand -20.0563 -24.6731
lfingers 7.12502
lthumb 6.28548 5.21365
rfemur -39.198 -8.88318 30.5394
rtibia 97.229
rfoot 27.5011 -14.9014
rtoes 67.9782
lfemur -9.42253 5.40747 -8.74648
ltibia 21.0084
lfoot 0.0492924 -10.8495
ltoes 12.2294
2902
root 13.4026 23.6853 49.0521 359.454 -180.097 11.4709
lowerback 27.5392 -2.1318 -7.87904
upperback 12.4941 -1.32908 4.02486
thorax -0.64133 0.135818 9.35822
lowerneck -17.0443 -2.8259 -24.7341
upperneck 35.2392 5.10723 6.36803
head 14.6696 0.606842 7.96478
rclavicle -4.45278e-014 1.82882e-014
rhumerus 40.3343 10.6867 -35.8659
rradius 104.482
rwrist 6.16242
rhand -34.0652 -17.1467
rfingers 7.12502
rthumb -7.24248 -47.0028
lclavicle -4.45278e-014 1.82882e-014
lhumerus 34.2546 -11.4227 70.885
lradius 52.3368
lwrist -34.5777
lhand -19.511 -23.3923
lfingers 7.12502
lthumb 6.81191 6.47808
rfemur -38.2177 -8.08675 30.9136
rtibia 95.666
rfoot 30.646 -15.7048
rtoes 67.9841
lfemur -10.8801 6.33064 -8.34611
ltibia 23.269
lfoot -0.474832 -11.6349
ltoes 13.1462
